<mxfile host="app.diagrams.net" modified="2024-03-14T06:01:38.975Z" agent="Mozilla/5.0 (Windows NT 10.0; Win64; x64) AppleWebKit/537.36 (KHTML, like Gecko) Chrome/122.0.0.0 Safari/537.36" etag="xWonl9iPkvVxKcT1k3cv" version="24.0.6" type="device">
  <diagram name="第 1 页" id="0__RdOKCb7u4hVEqBi_N">
    <mxGraphModel dx="819" dy="429" grid="1" gridSize="10" guides="1" tooltips="1" connect="1" arrows="1" fold="1" page="1" pageScale="1" pageWidth="827" pageHeight="1169" math="0" shadow="0">
      <root>
        <mxCell id="0" />
        <mxCell id="1" parent="0" />
        <mxCell id="u9iZqAjnskZ3WxhNy34E-1" value="被观测的&lt;div&gt;data&lt;/div&gt;" style="ellipse;whiteSpace=wrap;html=1;" vertex="1" parent="1">
          <mxGeometry x="200" y="240" width="80" height="80" as="geometry" />
        </mxCell>
        <mxCell id="u9iZqAjnskZ3WxhNy34E-6" value="&lt;div&gt;place1&lt;/div&gt;... ..." style="shape=note;whiteSpace=wrap;html=1;backgroundOutline=1;darkOpacity=0.05;size=15;" vertex="1" parent="1">
          <mxGeometry x="440" y="130" width="56" height="70" as="geometry" />
        </mxCell>
        <mxCell id="u9iZqAjnskZ3WxhNy34E-7" value="place2&lt;div&gt;... ...&lt;/div&gt;" style="shape=note;whiteSpace=wrap;html=1;backgroundOutline=1;darkOpacity=0.05;size=16;" vertex="1" parent="1">
          <mxGeometry x="440" y="245" width="56" height="70" as="geometry" />
        </mxCell>
        <mxCell id="u9iZqAjnskZ3WxhNy34E-8" value="place3&lt;div&gt;... ...&lt;/div&gt;" style="shape=note;whiteSpace=wrap;html=1;backgroundOutline=1;darkOpacity=0.05;size=16;" vertex="1" parent="1">
          <mxGeometry x="440" y="360" width="56" height="70" as="geometry" />
        </mxCell>
        <mxCell id="u9iZqAjnskZ3WxhNy34E-14" value="页面中用到 data 的地方" style="text;html=1;align=center;verticalAlign=middle;resizable=0;points=[];autosize=1;strokeColor=none;fillColor=none;" vertex="1" parent="1">
          <mxGeometry x="393" y="80" width="150" height="30" as="geometry" />
        </mxCell>
        <mxCell id="u9iZqAjnskZ3WxhNy34E-30" style="rounded=0;orthogonalLoop=1;jettySize=auto;html=1;entryX=0.5;entryY=0;entryDx=0;entryDy=0;exitX=0.006;exitY=0.514;exitDx=0;exitDy=0;exitPerimeter=0;strokeColor=#009900;" edge="1" parent="1" source="u9iZqAjnskZ3WxhNy34E-16" target="u9iZqAjnskZ3WxhNy34E-1">
          <mxGeometry relative="1" as="geometry" />
        </mxCell>
        <mxCell id="u9iZqAjnskZ3WxhNy34E-16" value="getter" style="text;html=1;align=center;verticalAlign=middle;resizable=0;points=[];autosize=1;strokeColor=#82b366;fillColor=#d5e8d4;" vertex="1" parent="1">
          <mxGeometry x="330" y="140" width="50" height="30" as="geometry" />
        </mxCell>
        <mxCell id="u9iZqAjnskZ3WxhNy34E-37" style="rounded=0;orthogonalLoop=1;jettySize=auto;html=1;entryX=1;entryY=0.5;entryDx=0;entryDy=0;strokeColor=#009900;" edge="1" parent="1" source="u9iZqAjnskZ3WxhNy34E-17" target="u9iZqAjnskZ3WxhNy34E-1">
          <mxGeometry relative="1" as="geometry" />
        </mxCell>
        <mxCell id="u9iZqAjnskZ3WxhNy34E-17" value="getter" style="text;html=1;align=center;verticalAlign=middle;resizable=0;points=[];autosize=1;strokeColor=#82b366;fillColor=#d5e8d4;" vertex="1" parent="1">
          <mxGeometry x="330" y="250" width="50" height="30" as="geometry" />
        </mxCell>
        <mxCell id="u9iZqAjnskZ3WxhNy34E-39" style="rounded=0;orthogonalLoop=1;jettySize=auto;html=1;entryX=0.5;entryY=1;entryDx=0;entryDy=0;exitX=0.049;exitY=0.576;exitDx=0;exitDy=0;exitPerimeter=0;strokeColor=#009900;" edge="1" parent="1" source="u9iZqAjnskZ3WxhNy34E-18" target="u9iZqAjnskZ3WxhNy34E-1">
          <mxGeometry relative="1" as="geometry" />
        </mxCell>
        <mxCell id="u9iZqAjnskZ3WxhNy34E-18" value="getter" style="text;html=1;align=center;verticalAlign=middle;resizable=0;points=[];autosize=1;strokeColor=#82b366;fillColor=#d5e8d4;" vertex="1" parent="1">
          <mxGeometry x="330" y="360" width="50" height="30" as="geometry" />
        </mxCell>
        <mxCell id="u9iZqAjnskZ3WxhNy34E-22" value="setter" style="text;html=1;align=center;verticalAlign=middle;resizable=0;points=[];autosize=1;strokeColor=#b85450;fillColor=#f8cecc;" vertex="1" parent="1">
          <mxGeometry x="330" y="280" width="50" height="30" as="geometry" />
        </mxCell>
        <mxCell id="u9iZqAjnskZ3WxhNy34E-23" value="setter" style="text;html=1;align=center;verticalAlign=middle;resizable=0;points=[];autosize=1;strokeColor=#b85450;fillColor=#f8cecc;" vertex="1" parent="1">
          <mxGeometry x="330" y="390" width="50" height="30" as="geometry" />
        </mxCell>
        <mxCell id="u9iZqAjnskZ3WxhNy34E-19" value="setter" style="text;html=1;align=center;verticalAlign=middle;resizable=0;points=[];autosize=1;strokeColor=#b85450;fillColor=#f8cecc;" vertex="1" parent="1">
          <mxGeometry x="330" y="170" width="50" height="30" as="geometry" />
        </mxCell>
        <mxCell id="u9iZqAjnskZ3WxhNy34E-29" style="rounded=0;orthogonalLoop=1;jettySize=auto;html=1;fontColor=#CCFFCC;strokeColor=#009900;" edge="1" parent="1" source="u9iZqAjnskZ3WxhNy34E-6" target="u9iZqAjnskZ3WxhNy34E-16">
          <mxGeometry relative="1" as="geometry" />
        </mxCell>
        <mxCell id="u9iZqAjnskZ3WxhNy34E-32" style="rounded=0;orthogonalLoop=1;jettySize=auto;html=1;entryX=0.02;entryY=0.433;entryDx=0;entryDy=0;entryPerimeter=0;strokeColor=#FF0000;" edge="1" parent="1" target="u9iZqAjnskZ3WxhNy34E-19">
          <mxGeometry relative="1" as="geometry">
            <mxPoint x="240" y="240" as="sourcePoint" />
          </mxGeometry>
        </mxCell>
        <mxCell id="u9iZqAjnskZ3WxhNy34E-33" style="rounded=0;orthogonalLoop=1;jettySize=auto;html=1;entryX=0;entryY=0.5;entryDx=0;entryDy=0;entryPerimeter=0;strokeColor=#FF0000;" edge="1" parent="1" source="u9iZqAjnskZ3WxhNy34E-19" target="u9iZqAjnskZ3WxhNy34E-6">
          <mxGeometry relative="1" as="geometry" />
        </mxCell>
        <mxCell id="u9iZqAjnskZ3WxhNy34E-34" style="rounded=0;orthogonalLoop=1;jettySize=auto;html=1;entryX=1;entryY=0.667;entryDx=0;entryDy=0;entryPerimeter=0;strokeColor=#009900;" edge="1" parent="1" source="u9iZqAjnskZ3WxhNy34E-7" target="u9iZqAjnskZ3WxhNy34E-17">
          <mxGeometry relative="1" as="geometry" />
        </mxCell>
        <mxCell id="u9iZqAjnskZ3WxhNy34E-35" style="rounded=0;orthogonalLoop=1;jettySize=auto;html=1;entryX=0;entryY=0.5;entryDx=0;entryDy=0;entryPerimeter=0;strokeColor=#FF0000;" edge="1" parent="1" source="u9iZqAjnskZ3WxhNy34E-22" target="u9iZqAjnskZ3WxhNy34E-7">
          <mxGeometry relative="1" as="geometry" />
        </mxCell>
        <mxCell id="u9iZqAjnskZ3WxhNy34E-36" style="rounded=0;orthogonalLoop=1;jettySize=auto;html=1;entryX=-0.02;entryY=0.462;entryDx=0;entryDy=0;entryPerimeter=0;strokeColor=#FF0000;" edge="1" parent="1" target="u9iZqAjnskZ3WxhNy34E-22">
          <mxGeometry relative="1" as="geometry">
            <mxPoint x="280" y="280" as="sourcePoint" />
          </mxGeometry>
        </mxCell>
        <mxCell id="u9iZqAjnskZ3WxhNy34E-38" style="rounded=0;orthogonalLoop=1;jettySize=auto;html=1;entryX=-0.02;entryY=0.51;entryDx=0;entryDy=0;entryPerimeter=0;exitX=0.5;exitY=1;exitDx=0;exitDy=0;strokeColor=#FF0000;" edge="1" parent="1" source="u9iZqAjnskZ3WxhNy34E-1" target="u9iZqAjnskZ3WxhNy34E-23">
          <mxGeometry relative="1" as="geometry" />
        </mxCell>
        <mxCell id="u9iZqAjnskZ3WxhNy34E-40" style="rounded=0;orthogonalLoop=1;jettySize=auto;html=1;strokeColor=#009900;" edge="1" parent="1">
          <mxGeometry relative="1" as="geometry">
            <mxPoint x="440" y="395" as="sourcePoint" />
            <mxPoint x="380" y="375" as="targetPoint" />
          </mxGeometry>
        </mxCell>
        <mxCell id="u9iZqAjnskZ3WxhNy34E-41" style="rounded=0;orthogonalLoop=1;jettySize=auto;html=1;entryX=0;entryY=0.5;entryDx=0;entryDy=0;entryPerimeter=0;strokeColor=#FF0000;" edge="1" parent="1" source="u9iZqAjnskZ3WxhNy34E-23" target="u9iZqAjnskZ3WxhNy34E-8">
          <mxGeometry relative="1" as="geometry" />
        </mxCell>
      </root>
    </mxGraphModel>
  </diagram>
</mxfile>
